<svg id="图层_1" data-name="图层 1" xmlns="http://www.w3.org/2000/svg" width="300" height="300" viewBox="0 0 300 300">
  <defs>
    <style>
      .cls-1 {
        fill: #fe4096;
      }

      .cls-2 {
        fill: #5af5e3;
      }

      .cls-3 {
        fill: #24d0f8;
      }

      .cls-4 {
        fill: #851fe5;
      }

      .cls-5 {
        fill: #fece00;
      }
    </style>
  </defs>
  <g>
    <path class="cls-1" d="M139.88,12.57v94.66A7.52,7.52,0,0,1,127,112.54L60.16,45.73a12.66,12.66,0,0,1,1.77-19.24A152.2,152.2,0,0,1,125.45.17,12.53,12.53,0,0,1,139.88,12.57Z"/>
    <path class="cls-2" d="M240.1,45.73,173,112.54a7.57,7.57,0,0,1-12.9-5.31V12.57A12.39,12.39,0,0,1,174.55.17a147.76,147.76,0,0,1,63.53,26.32A12.52,12.52,0,0,1,240.1,45.73Z"/>
    <path class="cls-3" d="M287.43,139.88H192.78A7.52,7.52,0,0,1,187.46,127l66.82-66.82a12.65,12.65,0,0,1,19.23,1.77,152.17,152.17,0,0,1,26.32,63.53A12.53,12.53,0,0,1,287.43,139.88Z"/>
    <path class="cls-4" d="M299.83,174.55a147.64,147.64,0,0,1-26.32,63.53,12.65,12.65,0,0,1-19.23,1.77L187.46,173a7.57,7.57,0,0,1,5.32-12.91h94.65A12.53,12.53,0,0,1,299.83,174.55Z"/>
    <path class="cls-1" d="M238.33,273.51a152.2,152.2,0,0,1-63.52,26.32,12.53,12.53,0,0,1-14.43-12.4V192.77a7.52,7.52,0,0,1,12.91-5.31l66.81,66.81A12.66,12.66,0,0,1,238.33,273.51Z"/>
    <path class="cls-2" d="M139.88,192.77v94.66a12.4,12.4,0,0,1-14.43,12.4,147.72,147.72,0,0,1-63.52-26.32,12.66,12.66,0,0,1-1.77-19.24L127,187.46A7.52,7.52,0,0,1,139.88,192.77Z"/>
    <path class="cls-3" d="M112.55,173,45.73,239.85a12.67,12.67,0,0,1-19.24-1.77A152.3,152.3,0,0,1,.17,174.55a12.54,12.54,0,0,1,12.4-14.43h94.66A7.52,7.52,0,0,1,112.55,173Z"/>
    <path class="cls-4" d="M107.23,139.88H12.57A12.4,12.4,0,0,1,.17,125.45,147.76,147.76,0,0,1,26.49,61.92a12.67,12.67,0,0,1,19.24-1.77L112.55,127A7.52,7.52,0,0,1,107.23,139.88Z"/>
    <circle class="cls-5" cx="150" cy="150" r="22.78"/>
  </g>
</svg>
